<?xml version="1.0" encoding="utf-8"?><svg width="189" height="190" viewBox="0 0 189 190" fill="none" xmlns="http://www.w3.org/2000/svg">
<path d="M137.068 94.3371C135.686 94.5214 134.672 95.0743 134.027 95.9959C132.46 96.2723 131.124 97.1017 130.018 98.484C126.056 99.8663 123.153 101.018 121.31 101.94C121.126 102.216 121.033 102.4 121.033 102.493L121.586 102.907C121.863 102.815 122.278 102.677 122.83 102.493C123.383 102.308 123.89 102.124 124.351 101.94C124.812 101.755 125.273 101.617 125.733 101.525V101.663H125.595C124.397 101.848 123.199 102.723 122.001 104.29H121.586C120.941 104.197 120.342 104.474 119.789 105.119C119.329 105.672 119.006 105.994 118.822 106.087L114.813 107.469C112.141 109.128 109.284 110.28 106.243 110.925C106.059 110.925 105.091 111.109 103.34 111.478C101.681 111.754 100.391 111.984 99.4697 112.169H98.0874C97.0737 112.906 95.2767 112.86 92.6964 112.03C90.5769 111.293 89.2868 110.326 88.826 109.128C88.826 108.943 88.7338 108.713 88.5495 108.437C88.4574 108.068 88.3652 107.745 88.2731 107.469C86.2457 105.349 85.6928 102.17 86.6143 97.9311C86.7065 97.1938 86.9829 96.1802 87.4437 94.89C87.9045 93.5077 88.1809 92.6783 88.2731 92.4019V92.1254C87.9966 91.849 87.8123 91.8029 87.7202 91.9872L77.9059 98.8987C76.2471 99.8202 74.404 100.972 72.3767 102.354C68.5984 105.119 66.5249 106.593 66.1563 106.778C65.5113 107.239 63.0231 108.805 58.6919 111.478C58.5998 111.478 58.3694 111.57 58.0008 111.754C57.7243 111.938 57.4939 112.03 57.3096 112.03H52.7481C50.905 111.662 49.5688 110.971 48.7394 109.957C47.91 108.851 47.3571 107.239 47.0806 105.119C46.9885 103.829 47.311 102.4 48.0482 100.834C48.3247 100.465 48.8776 99.7741 49.707 98.7605C50.4442 97.7468 50.9971 96.9635 51.3658 96.4105C52.3794 95.3047 55.4205 92.1715 60.4889 87.0109C61.8712 85.6286 65.0505 83.1405 70.0268 79.5465C71.962 78.2564 75.1413 76.9662 79.5646 75.6761C80.4861 75.2153 81.7302 75.3075 83.2968 75.9526C84.9556 76.5976 86.0614 77.3809 86.6143 78.3025C86.7986 78.5789 86.9369 78.9015 87.029 79.2701C87.1212 79.5465 87.0751 79.7769 86.8908 79.9612C86.7065 80.1455 86.4761 80.1916 86.1996 80.0994C85.5546 79.7308 84.6791 79.6387 83.5733 79.823C82.5596 79.9151 81.8224 80.0073 81.3616 80.0994C80.9008 80.1916 80.2097 80.422 79.2881 80.7906C78.4588 81.1592 77.9058 81.3896 77.6294 81.4817C75.6942 82.4954 72.8374 84.7071 69.0592 88.1168L64.2211 92.9548C63.4839 93.5077 62.7467 94.1528 62.0094 94.89C61.2722 95.6272 60.4889 96.4566 59.6595 97.3782C58.8302 98.2997 58.1851 98.9908 57.7243 99.4516C57.3557 99.6359 57.0793 100.051 56.8949 100.696C56.8028 101.341 56.6185 101.755 56.342 101.94C54.5911 103.691 53.8078 104.704 53.9921 104.981C53.9921 104.981 54.0843 105.027 54.2686 105.119C54.6372 105.119 55.0058 105.073 55.3744 104.981C55.743 104.796 56.1116 104.612 56.4803 104.428C56.941 104.151 57.3096 103.967 57.5861 103.875C61.1801 102.124 65.0044 99.7741 69.0592 96.8252C71.7316 95.1665 75.6481 92.494 80.8087 88.8079C83.2968 86.9649 86.1536 85.0757 89.3789 83.1405C89.6554 83.0483 89.9318 82.9101 90.2083 82.7258C90.5769 82.4494 90.8073 82.3111 90.8994 82.3111C91.0837 82.1268 91.3602 82.0347 91.7288 82.0347C92.1896 82.6797 92.8807 83.1405 93.8023 83.417C94.8159 83.6013 95.4149 83.7395 95.5992 83.8317C95.5992 83.9238 95.9218 84.062 96.5668 84.2463C96.2904 84.615 96.3825 84.9836 96.8433 85.3522C97.3041 85.7208 97.5345 86.0433 97.5345 86.3198C97.4423 86.5041 97.4423 86.9188 97.5345 87.5639C97.6266 88.2089 97.5345 88.5315 97.258 88.5315C96.9815 89.0844 96.7512 89.8677 96.5668 90.8814C96.4747 91.895 96.3825 92.5401 96.2904 92.8166C95.5532 94.1989 94.7238 96.088 93.8023 98.484C93.065 99.9584 92.6043 101.11 92.42 101.94C92.42 102.308 92.1896 102.769 91.7288 103.322C91.3602 103.875 91.3141 104.336 91.5906 104.704C92.42 104.981 93.5719 105.119 95.0463 105.119C98.2717 105.119 101.727 104.382 105.414 102.907L112.878 99.5898C126.332 94.4293 133.843 91.6186 135.409 91.1578L140.939 89.7755C141.399 89.7755 141.768 89.6834 142.044 89.4991L142.321 89.9138L142.183 90.4667L141.63 91.0196C139.971 91.0196 137.529 91.6186 134.304 92.8166V92.9548C134.764 93.1391 135.363 93.3234 136.101 93.5077C136.838 93.5999 137.299 93.692 137.483 93.7842C137.391 93.8763 137.252 94.0606 137.068 94.3371ZM107.763 107.054C108.132 106.778 108.915 106.455 110.113 106.087C111.403 105.626 112.325 105.119 112.878 104.566H109.837C108.731 104.75 107.164 105.119 105.137 105.672C103.11 106.133 101.866 106.409 101.405 106.501L101.128 106.64C100.944 106.824 100.76 106.962 100.576 107.054V107.331C100.576 107.423 100.668 107.469 100.852 107.469C100.852 107.561 100.944 107.607 101.128 107.607C101.497 107.515 102.142 107.331 103.064 107.054C103.985 106.686 104.63 106.501 104.999 106.501C105.46 106.501 106.243 106.686 107.349 107.054H107.763ZM128.083 95.0283C130.018 94.9361 132.046 94.3832 134.165 93.3695H134.304C132.737 93.093 130.663 93.5999 128.083 94.89V95.0283ZM122.278 97.6546V97.3782C120.711 97.1938 119.559 97.6085 118.822 98.6222C120.02 98.8987 121.172 98.5761 122.278 97.6546ZM122.278 97.2399C123.936 97.4242 125.088 97.0095 125.733 95.9959C124.627 95.8116 123.476 96.2262 122.278 97.2399ZM84.8173 88.1168C85.831 88.1168 86.5222 87.656 86.8908 86.7345C86.0614 86.6423 85.3703 87.1031 84.8173 88.1168ZM80.5322 91.0196C81.4537 91.0196 82.1449 90.5127 82.6057 89.4991C81.592 89.4991 80.9008 90.0059 80.5322 91.0196ZM86.8908 86.5962C87.9966 86.7805 88.6417 86.3659 88.826 85.3522C87.8123 85.3522 87.1672 85.7669 86.8908 86.5962ZM76.2471 93.7842C77.3529 93.8763 77.998 93.4156 78.1823 92.4019C77.4451 92.4019 76.8 92.8627 76.2471 93.7842ZM126.148 95.9959C127.07 95.9959 127.715 95.6733 128.083 95.0283H126.424C126.24 95.0283 126.148 95.3508 126.148 95.9959ZM78.597 92.1254C79.795 92.1254 80.4401 91.7568 80.5322 91.0196C79.3342 91.0196 78.6892 91.3882 78.597 92.1254ZM82.7439 89.4991C83.4811 89.4991 84.1723 89.0383 84.8173 88.1168C83.6193 88.3011 82.9282 88.7618 82.7439 89.4991ZM117.854 99.4516C118.315 99.4516 118.545 99.1751 118.545 98.6222L117.716 98.7605C117.163 98.8526 116.794 99.083 116.61 99.4516H117.854ZM74.1736 95.0283C75.2795 95.0283 75.8785 94.6136 75.9706 93.7842C75.4177 93.7842 74.8187 94.1989 74.1736 95.0283ZM137.483 92.4019H138.727C138.358 92.7705 138.174 93.093 138.174 93.3695H138.036C137.483 93.0009 137.299 92.6783 137.483 92.4019ZM116.61 104.29C116.702 104.197 116.748 104.059 116.748 103.875L116.61 103.737L116.472 103.598C115.827 103.598 115.504 103.829 115.504 104.29H116.61ZM113.846 100.696H114.122C114.122 100.419 113.984 100.281 113.707 100.281H113.431L113.846 100.696ZM73.6207 95.7194C73.8972 95.7194 74.0354 95.489 74.0354 95.0283C73.759 95.0283 73.6207 95.2586 73.6207 95.7194ZM116.472 99.8663V99.5898H116.057L116.472 99.8663ZM114.813 104.704V104.566C114.905 104.474 114.951 104.382 114.951 104.29C114.767 104.29 114.721 104.428 114.813 104.704ZM73.0678 96.2723L73.3443 95.9959H73.0678V96.2723ZM139.142 92.1254L138.865 92.4019C138.865 92.2176 138.957 92.1254 139.142 92.1254ZM130.986 95.5812L131.262 95.7194V95.5812H130.986ZM125.733 101.525C125.825 101.433 125.918 101.387 126.01 101.387L125.733 101.525ZM89.2407 84.9375L89.3789 84.7993H89.2407V84.9375Z" fill="white"/>
<path fill-rule="evenodd" clip-rule="evenodd" d="M134.027 95.4788C134.672 94.5573 135.686 94.0044 137.068 93.8201C137.252 93.5436 137.391 93.3593 137.483 93.2672C137.299 93.175 136.838 93.0828 136.101 92.9907C135.363 92.8064 134.764 92.6221 134.304 92.4378V92.2995C137.529 91.1016 139.971 90.5026 141.63 90.5026L142.183 89.9496L142.321 89.3967L142.044 88.982C141.768 89.1663 141.399 89.2585 140.939 89.2585L135.409 90.6408C133.843 91.1016 126.332 93.9122 112.878 99.0728L112.514 99.2344H116.3L116.057 99.0728H116.472V99.2344H126.51C127.569 98.8359 128.738 98.4135 130.018 97.967C131.124 96.5847 132.46 95.7553 134.027 95.4788ZM134.165 92.8525C132.046 93.8662 130.018 94.4191 128.083 94.5112V94.373C130.663 93.0829 132.737 92.576 134.304 92.8525H134.165ZM128.083 94.5112H126.424C126.24 94.5112 126.148 94.8338 126.148 95.4788C127.07 95.4788 127.715 95.1563 128.083 94.5112ZM122.278 96.8611V97.1376C121.172 98.0591 120.02 98.3817 118.822 98.1052C119.559 97.0915 120.711 96.6768 122.278 96.8611ZM122.278 96.7229C123.936 96.9072 125.088 96.4925 125.733 95.4788C124.627 95.2945 123.476 95.7092 122.278 96.7229ZM118.545 98.1052C118.545 98.6581 118.315 98.9346 117.854 98.9346H116.61C116.794 98.566 117.163 98.3356 117.716 98.2434L118.545 98.1052ZM131.262 95.2024L130.986 95.0641H131.262V95.2024Z" fill="url(#paint0_linear)"/>
<path fill-rule="evenodd" clip-rule="evenodd" d="M86.3011 99.2344C86.3729 98.651 86.4773 98.0442 86.6143 97.414C86.7065 96.6768 86.9829 95.6631 87.4437 94.373L88.2731 91.8849V91.6084C87.9966 91.3319 87.8123 91.2859 87.7201 91.4702L77.9058 98.3817C77.4286 98.6468 76.936 98.9311 76.4282 99.2344H64.8094C66.1967 98.3351 67.6133 97.3598 69.0591 96.3082C71.7316 94.6495 75.6481 91.977 80.8087 88.2909C83.2968 86.4478 86.1535 84.5587 89.3789 82.6235C89.6554 82.5313 89.9318 82.3931 90.2083 82.2088C90.5769 81.9323 90.8073 81.7941 90.8994 81.7941C91.0837 81.6098 91.3602 81.5176 91.7288 81.5176C92.1896 82.1627 92.8807 82.6235 93.8023 82.8999C94.8159 83.0842 95.4149 83.2225 95.5992 83.3146C95.5992 83.4068 95.9218 83.545 96.5668 83.7293C96.2904 84.0979 96.3825 84.4665 96.8433 84.8351C97.3041 85.2038 97.5345 85.5263 97.5345 85.8028C97.4423 85.9871 97.4423 86.4018 97.5345 87.0468C97.6266 87.6919 97.5345 88.0144 97.258 88.0144C96.9815 88.5673 96.7512 89.3506 96.5668 90.3643C96.4747 91.378 96.3825 92.0231 96.2904 92.2995C95.5532 93.6818 94.7238 95.571 93.8023 97.967C93.5758 98.4199 93.3754 98.8423 93.2012 99.2344H86.3011ZM84.8173 87.5997C85.831 87.5997 86.5222 87.139 86.8908 86.2174C86.0614 86.1253 85.3702 86.5861 84.8173 87.5997ZM84.8173 87.5997C83.6193 87.784 82.9282 88.2448 82.7439 88.982C83.4811 88.982 84.1723 88.5213 84.8173 87.5997ZM80.5322 90.5026C81.4537 90.5026 82.1449 89.9957 82.6057 88.982C81.592 88.982 80.9008 89.4889 80.5322 90.5026ZM80.5322 90.5026C79.3342 90.5026 78.6891 90.8712 78.597 91.6084C79.795 91.6084 80.4401 91.2398 80.5322 90.5026ZM86.8908 86.0792C87.9966 86.2635 88.6417 85.8488 88.826 84.8351C87.8123 84.8351 87.1672 85.2498 86.8908 86.0792ZM76.2471 93.2672C77.3529 93.3593 77.998 92.8985 78.1823 91.8849C77.4451 91.8849 76.8 92.3456 76.2471 93.2672ZM74.1736 94.5112C75.2795 94.5112 75.8785 94.0965 75.9706 93.2672C75.4177 93.2672 74.8187 93.6818 74.1736 94.5112ZM73.6207 95.2024C73.8972 95.2024 74.0354 94.972 74.0354 94.5112C73.759 94.5112 73.6207 94.7416 73.6207 95.2024ZM73.3443 95.4788L73.0678 95.7553V95.4788H73.3443ZM89.3789 84.2822L89.2407 84.4205V84.2822H89.3789Z" fill="url(#paint1_linear)"/>
<path d="M57.3525 99.2344H48.9014C49.1322 98.948 49.4008 98.6177 49.707 98.2434C50.4442 97.2297 50.9971 96.4464 51.3658 95.8935C52.3794 94.7877 55.4205 91.6545 60.4889 86.4939C61.8712 85.1116 65.0505 82.6235 70.0268 79.0295C71.962 77.7394 75.1413 76.4492 79.5646 75.1591C80.4861 74.6983 81.7302 74.7905 83.2968 75.4355C84.9556 76.0806 86.0614 76.8639 86.6143 77.7854C86.7986 78.0619 86.9368 78.3844 87.029 78.753C87.1212 79.0295 87.0751 79.2599 86.8908 79.4442C86.7065 79.6285 86.4761 79.6746 86.1996 79.5824C85.5546 79.2138 84.6791 79.1217 83.5733 79.306C82.5596 79.3981 81.8224 79.4903 81.3616 79.5824C80.9008 79.6746 80.2097 79.905 79.2881 80.2736C78.4588 80.6422 77.9058 80.8726 77.6294 80.9647C75.6942 81.9784 72.8374 84.1901 69.0591 87.5997L64.2211 92.4378C63.4839 92.9907 62.7467 93.6358 62.0094 94.373C61.2722 95.1102 60.4889 95.9396 59.6595 96.8611C58.8302 97.7827 58.1851 98.4738 57.7243 98.9346C57.5877 99.0029 57.4638 99.1028 57.3525 99.2344Z" fill="url(#paint2_linear)"/>
<path d="M138.727 91.8849H137.483C137.299 92.1613 137.483 92.4839 138.036 92.8525H138.174C138.174 92.576 138.358 92.2535 138.727 91.8849Z" fill="url(#paint3_linear)"/>
<path d="M139.142 91.6084L138.865 91.8849C138.865 91.7006 138.957 91.6084 139.142 91.6084Z" fill="url(#paint4_linear)"/>
<path d="M87.6437 175.224L88.8325 185.357L86.9214 185.084L86.2713 177.064L83.0991 184.54L81.1322 184.259L80.231 176.203L77.3657 183.722L75.4406 183.448L79.483 174.061L81.6034 174.363L82.5104 181.879L85.5373 174.924L87.6437 175.224Z" fill="white"/>
<path d="M66.5431 170.19C67.467 170.535 68.2008 171.04 68.7446 171.705C69.2796 172.366 69.6118 173.127 69.7413 173.988C69.8587 174.854 69.7414 175.758 69.3893 176.7C69.0373 177.641 68.5345 178.396 67.8808 178.964C67.2151 179.537 66.4634 179.898 65.6257 180.046C64.7793 180.191 63.8941 180.091 62.9702 179.745C62.0551 179.403 61.3257 178.9 60.7819 178.235C60.2381 177.57 59.9075 176.805 59.7902 175.939C59.6695 175.081 59.7852 174.182 60.1372 173.24C60.4892 172.299 60.9937 171.54 61.6506 170.963C62.3043 170.395 63.0543 170.038 63.9008 169.894C64.7472 169.749 65.628 169.847 66.5431 170.19ZM65.9756 171.707C65.0957 171.378 64.2876 171.407 63.5513 171.794C62.8062 172.177 62.2445 172.875 61.8662 173.887C61.4878 174.899 61.4541 175.794 61.7649 176.572C62.0669 177.347 62.6578 177.898 63.5377 178.227C64.4176 178.556 65.2301 178.529 65.9752 178.146C66.7203 177.763 67.282 177.065 67.6603 176.053C68.0387 175.041 68.0724 174.146 67.7616 173.368C67.4508 172.59 66.8555 172.036 65.9756 171.707Z" fill="white"/>
<path d="M56.3935 165.865L51.3545 174.345L48.2414 172.495C47.563 172.092 47.0754 171.643 46.7785 171.15C46.4687 170.66 46.3223 170.152 46.3395 169.627C46.3518 169.11 46.4995 168.613 46.7826 168.137C47.0898 167.62 47.5078 167.229 48.0367 166.964C48.5576 166.694 49.1623 166.633 49.8508 166.78L50.2035 162.187L51.9842 163.245L51.5721 167.524L52.8562 168.287L54.843 164.944L56.3935 165.865ZM52.1795 169.426L50.7138 168.555C50.1969 168.248 49.743 168.147 49.352 168.254C48.9609 168.36 48.643 168.619 48.3983 169.031C48.1583 169.435 48.0875 169.83 48.1858 170.216C48.276 170.598 48.5876 170.947 49.1206 171.263L50.5742 172.127L52.1795 169.426Z" fill="white"/>
<path d="M45.4305 158.821L39.0073 166.306L36.4515 164.113C35.5746 163.361 34.9892 162.586 34.6951 161.789C34.3878 160.993 34.3404 160.197 34.5527 159.402C34.7518 158.607 35.1756 157.832 35.824 157.076C36.4725 156.321 37.1774 155.78 37.9387 155.456C38.6867 155.132 39.4805 155.058 40.32 155.234C41.1462 155.411 41.9978 155.875 42.8747 156.628L45.4305 158.821ZM43.0523 158.822L41.9295 157.859C41.3021 157.321 40.721 156.995 40.1861 156.883C39.6451 156.778 39.1341 156.847 38.6531 157.09C38.1659 157.34 37.6898 157.736 37.2249 158.278C36.7661 158.813 36.45 159.34 36.2765 159.86C36.103 160.379 36.1093 160.898 36.2955 161.417C36.4817 161.936 36.8885 162.464 37.5158 163.003L38.6387 163.966L43.0523 158.822Z" fill="white"/>
<path d="M34.6156 148.741L27 155.009L24.6807 152.192C24.1792 151.582 23.8658 150.995 23.7406 150.429C23.6153 149.863 23.6498 149.335 23.844 148.847C24.0382 148.359 24.3565 147.932 24.799 147.568C25.2196 147.222 25.6853 146.997 26.1959 146.893C26.6993 146.795 27.2239 146.856 27.7698 147.076C28.3085 147.301 28.8346 147.726 29.348 148.35L30.5211 149.775L33.4694 147.348L34.6156 148.741ZM29.3896 150.707L28.2881 149.368C27.8882 148.882 27.4964 148.621 27.113 148.584C26.7163 148.545 26.333 148.678 25.9631 148.983C25.5859 149.293 25.3817 149.644 25.3505 150.034C25.306 150.424 25.4838 150.861 25.8838 151.347L26.9852 152.686L29.3896 150.707Z" fill="white"/>
<path d="M26.7216 138.366L18.1938 143.322L16.374 140.191C15.9775 139.509 15.7695 138.88 15.7502 138.305C15.7179 137.726 15.8371 137.211 16.1076 136.761C16.37 136.315 16.7408 135.953 17.22 135.674C17.7397 135.372 18.2951 135.234 18.8861 135.26C19.4723 135.278 20.0304 135.518 20.5605 135.982L23.1033 132.14L24.1442 133.931L21.7023 137.469L22.4529 138.761L25.8153 136.806L26.7216 138.366ZM21.3077 139.426L20.4509 137.952C20.1488 137.432 19.8011 137.124 19.4077 137.026C19.0143 136.929 18.6105 137.001 18.1963 137.242C17.7902 137.478 17.5361 137.788 17.4341 138.174C17.3273 138.551 17.4297 139.007 17.7413 139.543L18.591 141.005L21.3077 139.426Z" fill="white"/>
<path d="M20.6063 126.852L11.3901 130.367L9.09551 124.35L10.4516 123.833L12.1035 128.164L14.6314 127.2L13.1301 123.264L14.4467 122.762L15.948 126.698L18.6075 125.684L16.9556 121.352L18.3117 120.835L20.6063 126.852Z" fill="white"/>
<path d="M15.9196 111.169C16.0648 111.878 16.0734 112.528 15.9455 113.12C15.8083 113.714 15.5463 114.214 15.1595 114.619C14.7635 115.026 14.2398 115.301 13.5883 115.444L13.2063 113.581C13.6534 113.47 14.0023 113.231 14.253 112.863C14.4925 112.488 14.5567 112.029 14.4454 111.486C14.3492 111.016 14.1623 110.666 13.8849 110.436C13.5982 110.207 13.2663 110.131 12.8889 110.208C12.4932 110.289 12.2104 110.477 12.0405 110.77C11.8687 111.055 11.7552 111.414 11.7002 111.847C11.6451 112.28 11.5866 112.743 11.5244 113.235C11.4196 114.033 11.2052 114.672 10.8814 115.151C10.5557 115.62 10.057 115.924 9.38519 116.061C8.81652 116.188 8.30143 116.154 7.83992 115.961C7.36733 115.761 6.97062 115.439 6.64978 114.997C6.31974 114.556 6.08964 114.018 5.95948 113.383C5.82744 112.739 5.82647 112.15 5.95655 111.615C6.08476 111.071 6.32762 110.618 6.68515 110.257C7.04079 109.887 7.50201 109.634 8.0688 109.499L8.45644 111.39C8.11783 111.469 7.84609 111.664 7.64124 111.974C7.42529 112.277 7.36353 112.655 7.45596 113.105C7.52599 113.494 7.68958 113.801 7.94674 114.026C8.19281 114.244 8.5045 114.315 8.88181 114.237C9.2039 114.171 9.44082 114.017 9.59258 113.775C9.73513 113.535 9.83498 113.227 9.89214 112.851C9.9493 112.474 10.0053 112.046 10.0601 111.565C10.1277 111.052 10.2313 110.576 10.3711 110.135C10.5108 109.694 10.7402 109.316 11.0593 109.001C11.3691 108.688 11.8093 108.473 12.3799 108.356C12.886 108.253 13.3818 108.285 13.8671 108.454C14.3525 108.623 14.7804 108.933 15.1511 109.385C15.5125 109.838 15.7686 110.433 15.9196 111.169Z" fill="white"/>
<path d="M14.3369 98.2682C14.3659 98.991 14.2694 99.6341 14.0475 100.198C13.8163 100.762 13.4771 101.212 13.0299 101.55C12.5733 101.888 12.012 102.075 11.346 102.111L11.2699 100.21C11.7291 100.173 12.112 99.9931 12.4188 99.6706C12.7157 99.3391 12.8531 98.8964 12.831 98.3426C12.8118 97.8639 12.684 97.4883 12.4474 97.2157C12.2015 96.9435 11.8861 96.8151 11.5012 96.8305C11.0976 96.8467 10.7882 96.986 10.5731 97.2484C10.3576 97.5015 10.1877 97.8373 10.0635 98.256C9.93921 98.6746 9.80669 99.1218 9.66591 99.5975C9.43353 100.368 9.11892 100.964 8.72208 101.384C8.32486 101.795 7.78364 102.014 7.09844 102.041C6.51685 102.074 6.01392 101.958 5.58965 101.693C5.15561 101.419 4.81599 101.037 4.5708 100.549C4.31623 100.061 4.17597 99.4929 4.15004 98.8453C4.12374 98.1882 4.21796 97.6063 4.4327 97.0994C4.64707 96.5831 4.95981 96.1757 5.37092 95.8772C5.78166 95.5694 6.27764 95.3944 6.85884 95.3523L6.93607 97.2812C6.58915 97.3045 6.28954 97.4528 6.03724 97.7262C5.77518 97.9905 5.65336 98.3526 5.67177 98.8126C5.67817 99.2072 5.79007 99.5364 6.00746 99.8004C6.2151 100.055 6.51134 100.175 6.89618 100.16C7.22471 100.146 7.48339 100.033 7.67224 99.8183C7.8517 99.6043 8 99.3163 8.11713 98.9544C8.23426 98.5924 8.35871 98.1785 8.49048 97.7126C8.63989 97.2177 8.81916 96.7639 9.02827 96.3513C9.23739 95.9387 9.52479 95.6028 9.89047 95.3437C10.2468 95.085 10.7159 94.944 11.2979 94.9207C11.8141 94.9001 12.2981 95.0123 12.7498 95.2575C13.2014 95.5026 13.5737 95.8779 13.8666 96.3832C14.1501 96.889 14.3069 97.5173 14.3369 98.2682Z" fill="white"/>
<path d="M15.779 78.5977L7.56843 76.7665L6.94267 79.5721L5.52612 79.2562L7.17332 71.8708L8.58988 72.1867L7.96106 75.0061L16.1716 76.8374L15.779 78.5977Z" fill="white"/>
<path d="M18.5584 68.2274L9.44454 64.4553L10.1343 62.7887L13.9231 64.3569L15.6151 60.2686L11.8263 58.7005L12.5161 57.034L21.63 60.8061L20.9402 62.4726L16.9692 60.8291L15.2771 64.9173L19.2482 66.5608L18.5584 68.2274Z" fill="white"/>
<path d="M24.7682 54.811L16.4395 49.5266L19.8895 44.0892L21.115 44.8667L18.6313 48.7812L20.9158 50.2306L23.173 46.6731L24.3628 47.428L22.1056 50.9856L24.509 52.5105L26.9926 48.596L28.2181 49.3736L24.7682 54.811Z" fill="white"/>
<path d="M32.0589 44.0159L24.8726 37.2595L26.3397 35.6991L33.0503 37.6952L30.6156 31.1512L32.0827 29.5908L39.2689 36.3472L38.0335 37.6612L33.075 32.9993L35.1247 38.6979L34.1499 39.7348L28.3358 38.0399L33.2943 42.7019L32.0589 44.0159Z" fill="white"/>
<path d="M44.5406 31.8889L38.7532 23.9016L43.9678 20.1232L44.8193 21.2985L41.0653 24.0186L42.6527 26.2094L46.0644 23.7374L46.8912 24.8784L43.4795 27.3505L45.1495 29.6554L48.9036 26.9353L49.7551 28.1106L44.5406 31.8889Z" fill="white"/>
<path d="M62.4115 21.1952L58.8173 12.0097L64.7485 9.68886L65.2774 11.0404L61.0258 12.704L62.0322 15.276L65.4702 13.9307L65.9888 15.2561L62.5508 16.6013L64.0911 20.5379L62.4115 21.1952Z" fill="white"/>
<path d="M78.4269 16.3691C77.4602 16.5651 76.5702 16.525 75.757 16.249C74.9531 15.971 74.2684 15.5012 73.7029 14.8394C73.1448 14.1666 72.7658 13.3376 72.5661 12.3525C72.3665 11.3674 72.3936 10.4609 72.6475 9.63305C72.9088 8.79412 73.3555 8.09012 73.9878 7.52104C74.6293 6.95009 75.4334 6.56664 76.4001 6.37068C77.3576 6.17659 78.2429 6.21758 79.0561 6.49365C79.8693 6.76972 80.5549 7.24417 81.113 7.917C81.6693 8.58063 82.0473 9.405 82.247 10.3901C82.4467 11.3752 82.4205 12.2863 82.1684 13.1234C81.9145 13.9512 81.4668 14.6506 80.8253 15.2216C80.1838 15.7925 79.3844 16.175 78.4269 16.3691ZM78.1049 14.781C79.0256 14.5944 79.6959 14.1422 80.116 13.4244C80.5452 12.7048 80.6525 11.8156 80.4379 10.7568C80.2232 9.69807 79.7781 8.92085 79.1026 8.42519C78.4362 7.92766 77.6427 7.77221 76.722 7.95884C75.8013 8.14546 75.1264 8.59859 74.6972 9.31821C74.2679 10.0378 74.1606 10.927 74.3753 11.9858C74.5899 13.0446 75.035 13.8218 75.7106 14.3174C76.3861 14.8131 77.1843 14.9676 78.1049 14.781Z" fill="white"/>
<path d="M89.3269 14.6652L89.1136 4.80389L92.7341 4.7256C93.523 4.70854 94.174 4.8307 94.6871 5.0921C95.2093 5.3439 95.6022 5.69715 95.8657 6.15186C96.129 6.59718 96.2667 7.0969 96.2787 7.65101C96.2917 8.25208 96.1439 8.80495 95.8353 9.30962C95.5362 9.81409 95.0556 10.1862 94.3937 10.426L96.5256 14.5095L94.4548 14.5543L92.5393 10.7058L91.046 10.738L91.1301 14.6262L89.3269 14.6652ZM91.0174 9.41381L92.722 9.37695C93.323 9.36395 93.7613 9.20883 94.0367 8.91159C94.3122 8.61436 94.4448 8.22625 94.4344 7.74727C94.4242 7.27768 94.2752 6.90506 93.9874 6.6294C93.7089 6.35354 93.2598 6.22231 92.6399 6.23571L90.9494 6.27227L91.0174 9.41381Z" fill="white"/>
<path d="M109.49 15.824L115.414 7.15144L117.381 7.65079L118.45 18.0988L116.592 17.6272L116.389 15.2205L112.661 14.2738L111.321 16.2887L109.49 15.824ZM113.486 13.0294L116.258 13.7334L115.874 9.40531L113.486 13.0294Z" fill="white"/>
<path d="M127.669 21.9127C127.01 21.6132 126.474 21.2145 126.061 20.7168C125.651 20.2105 125.409 19.6203 125.334 18.9462C125.267 18.276 125.419 17.5348 125.789 16.7225L128.31 11.1819L129.951 11.9289L127.424 17.4824C127.105 18.1835 127.035 18.7809 127.213 19.2747C127.399 19.7723 127.791 20.1573 128.39 20.4297C128.98 20.6981 129.524 20.7391 130.021 20.5528C130.519 20.3664 130.927 19.9226 131.246 19.2215L133.773 13.668L135.415 14.415L132.894 19.9557C132.524 20.7679 132.056 21.3652 131.49 21.7475C130.924 22.1298 130.307 22.329 129.639 22.345C128.984 22.3564 128.327 22.2123 127.669 21.9127Z" fill="white"/>
<path d="M138.601 27.7285L143.314 20.76L140.933 19.1497L141.746 17.9474L148.014 22.1862L147.201 23.3884L144.808 21.7703L140.095 28.7388L138.601 27.7285Z" fill="white"/>
<path d="M147.232 34.1143L154.081 27.0164L155.379 28.2688L152.532 31.2195L155.715 34.2919L158.563 31.3412L159.861 32.5936L153.011 39.6915L151.714 38.4391L154.698 35.3464L151.514 32.2741L148.53 35.3667L147.232 34.1143Z" fill="white"/>
<path d="M160.009 48.6308C159.44 47.8246 159.119 46.9938 159.045 46.1382C158.976 45.2904 159.13 44.4745 159.509 43.6906C159.9 42.9089 160.507 42.2285 161.328 41.6494C162.15 41.0702 162.991 40.7304 163.851 40.6298C164.724 40.5314 165.548 40.6572 166.323 41.0071C167.104 41.3647 167.779 41.9466 168.347 42.7528C168.91 43.5513 169.229 44.3783 169.303 45.2338C169.377 46.0894 169.219 46.908 168.827 47.6896C168.444 48.4659 167.841 49.1436 167.019 49.7227C166.198 50.3018 165.353 50.6444 164.486 50.7504C163.625 50.851 162.805 50.7225 162.024 50.3649C161.244 50.0073 160.572 49.4293 160.009 48.6308ZM161.333 47.6971C161.874 48.4649 162.558 48.8967 163.384 48.9925C164.216 49.0959 165.073 48.8364 165.956 48.214C166.839 47.5915 167.371 46.8714 167.553 46.0535C167.741 45.2432 167.564 44.4542 167.023 43.6864C166.481 42.9186 165.795 42.483 164.963 42.3796C164.132 42.2761 163.275 42.5356 162.392 43.1581C161.509 43.7805 160.976 44.5007 160.794 45.3186C160.612 46.1365 160.792 46.9293 161.333 47.6971Z" fill="white"/>
<path d="M165.954 57.9243L174.896 53.7617L176.425 57.0448C176.758 57.7602 176.908 58.4053 176.875 58.9802C176.854 59.5596 176.689 60.0614 176.379 60.4856C176.077 60.9058 175.675 61.2329 175.172 61.4668C174.627 61.7205 174.062 61.8076 173.475 61.7282C172.893 61.6572 172.359 61.367 171.873 60.8575L168.993 64.4521L168.118 62.5743L170.871 59.2723L170.241 57.9182L166.715 59.5594L165.954 57.9243ZM171.442 57.3592L172.161 58.905C172.415 59.45 172.733 59.7889 173.116 59.9215C173.499 60.0541 173.908 60.0193 174.342 59.8171C174.768 59.6189 175.049 59.3325 175.186 58.9581C175.326 58.5922 175.266 58.1282 175.004 57.5661L174.291 56.0332L171.442 57.3592Z" fill="white"/>
<path d="M173.005 76.8499L183.328 78.7841L183.662 80.7855L174.527 85.9674L174.211 84.0772L176.333 82.9231L175.7 79.1288L173.316 78.7124L173.005 76.8499ZM177.171 79.3832L177.642 82.2046L181.449 80.1119L177.171 79.3832Z" fill="white"/>
<path d="M174.985 92.1344L184.847 92.3158L184.813 94.1191L177.783 98.6265L184.728 98.7542L184.695 100.558L174.833 100.376L174.866 98.5728L181.883 94.0652L174.952 93.9377L174.985 92.1344Z" fill="white"/>
<path d="M174.15 106.889L183.812 108.87L183.136 112.169C182.904 113.301 182.511 114.189 181.957 114.833C181.411 115.488 180.738 115.916 179.939 116.116C179.148 116.328 178.264 116.334 177.289 116.134C176.313 115.934 175.499 115.58 174.846 115.072C174.199 114.576 173.749 113.918 173.495 113.098C173.249 112.29 173.241 111.32 173.473 110.188L174.15 106.889ZM175.306 108.967L175.009 110.417C174.843 111.227 174.841 111.893 175.002 112.415C175.173 112.939 175.481 113.352 175.927 113.654C176.383 113.959 176.96 114.183 177.66 114.326C178.35 114.467 178.964 114.488 179.503 114.387C180.041 114.287 180.492 114.029 180.855 113.614C181.218 113.2 181.482 112.588 181.648 111.778L181.946 110.328L175.306 108.967Z" fill="white"/>
<path d="M166.886 130.305L176.766 132.848L175.823 134.532L168.108 132.248L173.938 137.901L172.967 139.635L165.127 137.572L171.109 142.955L170.159 144.652L162.86 137.498L163.906 135.629L171.244 137.492L165.847 132.161L166.886 130.305Z" fill="white"/>
<path d="M157.72 144.799L165.199 151.231L162.837 153.976C162.323 154.575 161.797 154.977 161.26 155.184C160.723 155.404 160.198 155.461 159.684 155.353C159.176 155.251 158.713 155.02 158.292 154.658C157.837 154.266 157.524 153.787 157.355 153.22C157.18 152.66 157.224 152.054 157.488 151.401L153.025 150.258L154.376 148.688L158.519 149.835L159.493 148.703L156.544 146.167L157.72 144.799ZM160.497 149.566L159.385 150.859C158.993 151.315 158.816 151.744 158.853 152.148C158.89 152.552 159.09 152.909 159.453 153.222C159.809 153.528 160.186 153.666 160.584 153.636C160.975 153.614 161.373 153.367 161.777 152.897L162.88 151.615L160.497 149.566Z" fill="white"/>
<path d="M148.785 154.322L155.329 161.703L153.979 162.899L147.435 155.519L148.785 154.322Z" fill="white"/>
<path d="M140.216 161.146L144.898 168.135L147.287 166.535L148.094 167.741L141.808 171.952L141 170.747L143.4 169.139L138.718 162.15L140.216 161.146Z" fill="white"/>
<path d="M131.024 166.704L135.118 175.678L129.26 178.351L128.657 177.03L132.875 175.106L131.752 172.645L127.919 174.394L127.334 173.112L131.167 171.363L129.985 168.773L125.768 170.698L125.165 169.377L131.024 166.704Z" fill="white"/>
<path d="M118.965 171.658L121.557 181.175L118.063 182.127C117.301 182.334 116.64 182.373 116.079 182.244C115.512 182.126 115.045 181.878 114.679 181.501C114.316 181.132 114.062 180.681 113.916 180.146C113.758 179.566 113.768 178.994 113.945 178.429C114.113 177.867 114.489 177.39 115.074 176.997L112.017 173.551L114.016 173.006L116.805 176.277L118.247 175.885L117.225 172.132L118.965 171.658ZM118.595 177.163L116.95 177.611C116.37 177.769 115.982 178.025 115.786 178.38C115.591 178.735 115.556 179.144 115.682 179.606C115.806 180.06 116.04 180.385 116.386 180.583C116.723 180.783 117.191 180.802 117.789 180.639L119.42 180.195L118.595 177.163Z" fill="white"/>
<path d="M102.897 174.781C103.617 174.706 104.265 174.761 104.841 174.947C105.419 175.142 105.89 175.452 106.255 175.876C106.622 176.31 106.844 176.859 106.923 177.521L105.031 177.718C104.964 177.262 104.76 176.891 104.419 176.606C104.069 176.331 103.619 176.222 103.067 176.279C102.591 176.329 102.224 176.48 101.967 176.734C101.711 176.996 101.603 177.319 101.643 177.702C101.685 178.104 101.844 178.404 102.119 178.602C102.385 178.801 102.731 178.949 103.157 179.046C103.583 179.144 104.038 179.248 104.521 179.358C105.305 179.541 105.92 179.817 106.364 180.186C106.799 180.556 107.053 181.082 107.124 181.764C107.193 182.343 107.109 182.852 106.872 183.292C106.626 183.743 106.267 184.106 105.795 184.382C105.324 184.667 104.767 184.843 104.122 184.91C103.468 184.978 102.881 184.922 102.362 184.739C101.833 184.558 101.406 184.272 101.082 183.881C100.749 183.491 100.542 183.007 100.463 182.43L102.384 182.23C102.429 182.574 102.596 182.864 102.885 183.098C103.165 183.343 103.534 183.441 103.992 183.394C104.386 183.362 104.707 183.23 104.957 182.996C105.198 182.772 105.299 182.469 105.259 182.086C105.225 181.759 105.095 181.508 104.869 181.333C104.644 181.168 104.347 181.038 103.978 180.944C103.609 180.851 103.188 180.753 102.715 180.651C102.212 180.533 101.747 180.383 101.322 180.201C100.897 180.018 100.544 179.753 100.262 179.405C99.9809 179.066 99.8103 178.606 99.75 178.027C99.6965 177.513 99.7777 177.023 99.9936 176.557C100.209 176.09 100.56 175.695 101.046 175.37C101.533 175.055 102.15 174.859 102.897 174.781Z" fill="white"/>
<defs>
<linearGradient id="paint0_linear" x1="95.145" y1="71.4087" x2="95.145" y2="99.2341" gradientUnits="userSpaceOnUse">
<stop offset="0.0260417" stop-color="#F9D002"/>
<stop offset="0.657143" stop-color="#C37F00"/>
<stop offset="1" stop-color="#F4C209"/>
</linearGradient>
<linearGradient id="paint1_linear" x1="95.145" y1="71.4087" x2="95.145" y2="99.2341" gradientUnits="userSpaceOnUse">
<stop offset="0.0260417" stop-color="#F9D002"/>
<stop offset="0.657143" stop-color="#C37F00"/>
<stop offset="1" stop-color="#F4C209"/>
</linearGradient>
<linearGradient id="paint2_linear" x1="95.145" y1="71.4087" x2="95.145" y2="99.2341" gradientUnits="userSpaceOnUse">
<stop offset="0.0260417" stop-color="#F9D002"/>
<stop offset="0.657143" stop-color="#C37F00"/>
<stop offset="1" stop-color="#F4C209"/>
</linearGradient>
<linearGradient id="paint3_linear" x1="95.145" y1="71.4087" x2="95.145" y2="99.2341" gradientUnits="userSpaceOnUse">
<stop offset="0.0260417" stop-color="#F9D002"/>
<stop offset="0.657143" stop-color="#C37F00"/>
<stop offset="1" stop-color="#F4C209"/>
</linearGradient>
<linearGradient id="paint4_linear" x1="95.145" y1="71.4087" x2="95.145" y2="99.2341" gradientUnits="userSpaceOnUse">
<stop offset="0.0260417" stop-color="#F9D002"/>
<stop offset="0.657143" stop-color="#C37F00"/>
<stop offset="1" stop-color="#F4C209"/>
</linearGradient>
</defs>
</svg>
